HIERARCHY
ROOT hip
{
  OFFSET 0 0 0
  CHANNELS 6 Xposition Yposition Zposition Zrotation Yrotation Xrotation
  JOINT abdomen
  {
    OFFSET 0 20.6881 -0.73152
    CHANNELS 3 Zrotation Xrotation Yrotation
    JOINT chest
    {
      OFFSET 0 11.7043 -0.48768
      CHANNELS 3 Zrotation Xrotation Yrotation
      JOINT neck
      {
        OFFSET 0 22.1894 -2.19456
        CHANNELS 3 Zrotation Xrotation Yrotation
        JOINT head
        {
          OFFSET -0.24384 7.07133 1.2192
          CHANNELS 3 Zrotation Xrotation Yrotation
          JOINT leftEye
          {
            OFFSET 4.14528 8.04674 8.04672
            CHANNELS 3 Zrotation Xrotation Yrotation
            End Site
            {
              OFFSET 1 0 0
            }
          }
          JOINT rightEye
          {
            OFFSET -3.6576 8.04674 8.04672
            CHANNELS 3 Zrotation Xrotation Yrotation
            End Site
            {
              OFFSET 1 0 0
            }
          }
        }
      }
      JOINT rCollar
      {
        OFFSET -2.68224 19.2634 -4.8768
        CHANNELS 3 Zrotation Xrotation Yrotation
        JOINT rShldr
        {
          OFFSET -8.77824 -1.95073 1.46304
          CHANNELS 3 Zrotation Xrotation Yrotation
          JOINT rForeArm
          {
            OFFSET -28.1742 -1.7115 0.48768
            CHANNELS 3 Zrotation Xrotation Yrotation
            JOINT rHand
            {
              OFFSET -22.5879 0.773209 7.07136
              CHANNELS 3 Zrotation Xrotation Yrotation
              JOINT rThumb1
              {
                OFFSET -1.2192 -0.487915 3.41376
                CHANNELS 3 Zrotation Xrotation Yrotation
                JOINT rThumb2
                {
                  OFFSET -3.37035 -0.52449 3.41376
                  CHANNELS 3 Zrotation Xrotation Yrotation
                  End Site
                  {
                    OFFSET -1.78271 -1.18214 1.43049
                  }
                }
              }
              JOINT rIndex1
              {
                OFFSET -7.75947 0.938293 5.60832
                CHANNELS 3 Zrotation Xrotation Yrotation
                JOINT rIndex2
                {
                  OFFSET -2.54057 -0.884171 1.56538
                  CHANNELS 3 Zrotation Xrotation Yrotation
                  End Site
                  {
                    OFFSET -1.62519 -0.234802 1.16502
                  }
                }
              }
              JOINT rMid1
              {
                OFFSET -8.24714 1.18213 3.41376
                CHANNELS 3 Zrotation Xrotation Yrotation
                JOINT rMid2
                {
                  OFFSET -3.10165 -0.590103 1.0647
                  CHANNELS 3 Zrotation Xrotation Yrotation
                  End Site
                  {
                    OFFSET -2.48547 -0.328903 0.83742
                  }
                }
              }
              JOINT rRing1
              {
                OFFSET -8.82822 0.546677 1.51678
                CHANNELS 3 Zrotation Xrotation Yrotation
                JOINT rRing2
                {
                  OFFSET -2.60934 -0.819778 -0.0198488
                  CHANNELS 3 Zrotation Xrotation Yrotation
                  End Site
                  {
                    OFFSET -2.33842 -0.294052 0.168128
                  }
                }
              }
              JOINT rPinky1
              {
                OFFSET -8.27202 -0.0477905 -0.4584
                CHANNELS 3 Zrotation Xrotation Yrotation
                JOINT rPinky2
                {
                  OFFSET -1.82734 -0.647385 -0.700984
                  CHANNELS 3 Zrotation Xrotation Yrotation
                  End Site
                  {
                    OFFSET -1.69225 -0.51767 -0.607171
                  }
                }
              }
            }
          }
        }
      }
      JOINT lCollar
      {
        OFFSET 2.68224 19.2634 -4.8768
        CHANNELS 3 Zrotation Xrotation Yrotation
        JOINT lShldr
        {
          OFFSET 8.77824 -1.95073 1.46304
          CHANNELS 3 Zrotation Xrotation Yrotation
          JOINT lForeArm
          {
            OFFSET 28.1742 -1.7115 0.48768
            CHANNELS 3 Zrotation Xrotation Yrotation
            JOINT lHand
            {
              OFFSET 22.5879 0.773209 7.07136
              CHANNELS 3 Zrotation Xrotation Yrotation
              JOINT lThumb1
              {
                OFFSET 1.2192 -0.487915 3.41376
                CHANNELS 3 Zrotation Xrotation Yrotation
                JOINT lThumb2
                {
                  OFFSET 3.37035 -0.52449 3.41376
                  CHANNELS 3 Zrotation Xrotation Yrotation
                  End Site
                  {
                    OFFSET 1.78271 -1.18214 1.43049
                  }
                }
              }
              JOINT lIndex1
              {
                OFFSET 7.75947 0.938293 5.60832
                CHANNELS 3 Zrotation Xrotation Yrotation
                JOINT lIndex2
                {
                  OFFSET 2.54057 -0.884171 1.56538
                  CHANNELS 3 Zrotation Xrotation Yrotation
                  End Site
                  {
                    OFFSET 1.62519 -0.234802 1.16502
                  }
                }
              }
              JOINT lMid1
              {
                OFFSET 8.24714 1.18213 3.41376
                CHANNELS 3 Zrotation Xrotation Yrotation
                JOINT lMid2
                {
                  OFFSET 3.10165 -0.590103 1.0647
                  CHANNELS 3 Zrotation Xrotation Yrotation
                  End Site
                  {
                    OFFSET 2.48547 -0.328903 0.83742
                  }
                }
              }
              JOINT lRing1
              {
                OFFSET 8.82822 0.546677 1.51678
                CHANNELS 3 Zrotation Xrotation Yrotation
                JOINT lRing2
                {
                  OFFSET 2.60934 -0.819778 -0.0198488
                  CHANNELS 3 Zrotation Xrotation Yrotation
                  End Site
                  {
                    OFFSET 2.33842 -0.294052 0.168128
                  }
                }
              }
              JOINT lPinky1
              {
                OFFSET 8.27202 -0.0477905 -0.4584
                CHANNELS 3 Zrotation Xrotation Yrotation
                JOINT lPinky2
                {
                  OFFSET 1.82734 -0.647385 -0.700984
                  CHANNELS 3 Zrotation Xrotation Yrotation
                  End Site
                  {
                    OFFSET 1.69225 -0.51767 -0.607171
                  }
                }
              }
            }
          }
        }
      }
    }
  }
  JOINT rButtock
  {
    OFFSET -8.77824 4.35084 1.2192
    CHANNELS 3 Zrotation Xrotation Yrotation
    JOINT rThigh
    {
      OFFSET 0 -1.70687 -2.19456
      CHANNELS 3 Zrotation Xrotation Yrotation
      JOINT rShin
      {
        OFFSET 0 -36.8199 0.73152
        CHANNELS 3 Zrotation Xrotation Yrotation
        JOINT rFoot
        {
          OFFSET 0.73152 -45.1104 -5.12064
          CHANNELS 3 Zrotation Xrotation Yrotation
          End Site
          {
            OFFSET -1.1221 -3.69964 12.103
          }
        }
      }
    }
  }
  JOINT lButtock
  {
    OFFSET 8.77824 4.35084 1.2192
    CHANNELS 3 Zrotation Xrotation Yrotation
    JOINT lThigh
    {
      OFFSET 0 -1.70687 -2.19456
      CHANNELS 3 Zrotation Xrotation Yrotation
      JOINT lShin
      {
        OFFSET 0 -36.8199 0.73152
        CHANNELS 3 Zrotation Xrotation Yrotation
        JOINT lFoot
        {
          OFFSET -0.73152 -45.1104 -5.12064
          CHANNELS 3 Zrotation Xrotation Yrotation
          End Site
          {
            OFFSET 1.1221 -3.69964 12.103
          }
        }
      }
    }
  }
}
MOTION
Frames:	4
Frame Time:	0.03333
17.164527345448732 76.4442503452301 0.6443585269153118 -0.4844801425933838 0.25211456418037415 2.6502931118011475 -4.488779067993164 3.4742047786712646 13.07271671295166 0.207367405295372 -6.783966541290283 3.614135503768921 -7.270114421844482 12.238746643066406 -8.23204231262207 8.656570434570312 -15.016416549682617 -14.379477500915527 -0.07919198274612427 -0.0033147307112812996 0.02767333760857582 0.013283549807965755 0.00451982906088233 -0.12579849362373352 -0.02862110361456871 0.018427258357405663 0.13095931708812714 -45.53317642211914 52.52592468261719 120.8411636352539 -28.503921508789062 -30.93874740600586 68.88229370117188 -0.12332113832235336 1.1880658864974976 0.4481741487979889 0.007414225954562426 0.050624411553144455 -0.011659209616482258 0.03338705375790596 -0.014494134113192558 -0.04759248346090317 0.03422614932060242 -0.00494350353255868 0.06749889999628067 7.708005428314209 5.529122352600098 0.5680123567581177 0.2656365633010864 -0.07608431577682495 -0.006140599492937326 2.941612958908081 1.0405784845352173 -0.014332643710076809 -0.003478139406070113 0.03639876842498779 0.09000162780284882 10.340572357177734 0.7819522619247437 -0.019175464287400246 -0.0005211610696278512 0.032495491206645966 -0.023353353142738342 2.2182300090789795 -0.6191407442092896 -0.25429463386535645 -0.015400265343487263 0.022588113322854042 -0.013888952322304249 -110.6726303100586 62.61351013183594 55.68391799926758 27.994821548461914 -39.81660079956055 -83.87081909179688 -0.3292025029659271 2.0155417919158936 -0.1875796616077423 0.07080662995576859 0.0018613962456583977 -0.05999487265944481 0.05194190889596939 0.04755705967545509 0.03706018254160881 -0.016234304755926132 0.1104753389954567 0.005770236253738403 -7.823775291442871 5.538412094116211 -0.42811018228530884 0.03139262646436691 0.023146171122789383 -0.05546705052256584 -2.9547576904296875 1.0042165517807007 -0.16407524049282074 -0.06904144585132599 0.028206700459122658 -0.03102564997971058 -10.328707695007324 0.738206148147583 -0.06547800451517105 0.010413245297968388 0.1188109964132309 0.05004814267158508 -2.155973196029663 -0.7065881490707397 0.23508617281913757 -0.021853625774383545 -0.025942036882042885 0.01403834018856287 4.192526817321777 -31.367280960083008 0.0752362310886383 -1.5960068702697754 56.676856994628906 1.9548752307891846 -1.3356133699417114 -22.42731285095215 -1.9652553796768188 0.05389213189482689 -0.07118497788906097 0.1124335527420044 -9.348855018615723 -32.65188980102539 -5.272690773010254 1.1370007991790771 55.09425354003906 -1.947397232055664 5.266493797302246 -21.185237884521484 10.513184547424316
17.410446144640446 75.6504476070404 0.6384174339473248 -0.4143897294998169 0.41419512033462524 2.821139097213745 -4.567018508911133 3.4933133125305176 13.095190048217773 0.28083282709121704 -6.872076511383057 3.553100109100342 -7.222865581512451 12.273632049560547 -8.231045722961426 8.600894927978516 -15.21603012084961 -14.411890983581543 -0.08571174740791321 -0.009846525266766548 0.031034104526042938 0.007931217551231384 -0.018724003806710243 -0.10003694891929626 0.009866115637123585 0.019691279157996178 0.11960829794406891 -45.291748046875 52.068153381347656 120.85761260986328 -28.611186981201172 -30.772890090942383 68.70140075683594 -0.13575217127799988 1.3368796110153198 0.48463523387908936 -0.02672783099114895 0.04465772211551666 -0.023514889180660248 0.021583108231425285 -0.01962890475988388 -0.02528342977166176 0.05222151428461075 -0.028816794976592064 0.05179043114185333 7.695044040679932 5.511419296264648 0.5513571500778198 0.23173801600933075 -0.03982245922088623 -0.03033977374434471 2.947079658508301 1.0112909078598022 -0.019226932898163795 -0.027498451992869377 0.03497892618179321 0.09167659282684326 10.35283088684082 0.7942251563072205 -0.019396411255002022 -0.026017332449555397 0.046841349452733994 -0.016161419451236725 2.256639242172241 -0.6167258620262146 -0.24833643436431885 0.006961568258702755 0.020247649401426315 -0.0012430158676579595 -110.18315887451172 62.45581817626953 55.643699645996094 27.900936126708984 -39.97609329223633 -84.1630859375 -0.3306508958339691 1.6067866086959839 -0.12573981285095215 0.07478303462266922 -0.023280486464500427 -0.05275798588991165 0.08097778260707855 0.06360653042793274 0.035364747047424316 -0.00946448277682066 0.10875732451677322 -0.019274374470114708 -7.811284065246582 5.498705863952637 -0.4099152684211731 0.027942312881350517 0.012457014061510563 -0.11441787332296371 -2.9575388431549072 0.9938384890556335 -0.1780318170785904 -0.048632629215717316 0.010139554738998413 -0.04376756027340889 -10.341839790344238 0.7029343843460083 -0.04452880471944809 0.024511445313692093 0.08059197664260864 0.030159052461385727 -2.1616129875183105 -0.7349153757095337 0.23638230562210083 -0.031957950443029404 -0.057903651148080826 -0.017686596140265465 3.9684057235717773 -31.371299743652344 -0.024731943383812904 -1.7204538583755493 56.79678726196289 2.0975685119628906 -1.3201427459716797 -22.257627487182617 -2.0507659912109375 0.05881151929497719 -0.06434082239866257 0.09433703124523163 -9.073222160339355 -32.9022102355957 -5.0692362785339355 1.0757050514221191 55.0169677734375 -1.9376404285430908 5.166882514953613 -21.060544967651367 10.485774993896484
17.63259032741189 75.5052387714386 0.6884606555104256 -0.8823356032371521 0.9979216456413269 2.695415735244751 -4.503697395324707 3.5841312408447266 13.23079776763916 0.22102206945419312 -6.806888103485107 3.633732795715332 -7.250361442565918 12.286629676818848 -8.233698844909668 8.544793128967285 -15.254375457763672 -14.470393180847168 -0.0995541587471962 -0.026476062834262848 -0.01272542029619217 0.006158298347145319 -0.03656095266342163 -0.04618513211607933 0.06454746425151825 0.027262208983302116 0.092896468937397 -46.16868591308594 51.9632682800293 121.60611724853516 -28.40345001220703 -31.06570816040039 69.14957427978516 -0.13063371181488037 -0.01932256855070591 0.2450111210346222 -0.023482996970415115 0.01921651139855385 -0.05901729688048363 -0.009867876768112183 -7.83114301157184e-05 0.022791586816310883 0.05559391528367996 -0.049529384821653366 0.03181564435362816 7.703692436218262 5.486220359802246 0.5004266500473022 0.19586125016212463 -0.003951195627450943 -0.057796500623226166 2.872490882873535 1.0019177198410034 -0.04912620037794113 -0.04210170358419418 0.0390092134475708 0.10067788511514664 10.333717346191406 0.7845195531845093 -0.02087649144232273 -0.036628447473049164 0.09073511511087418 -0.003938349895179272 2.257984161376953 -0.6552906632423401 -0.19430285692214966 0.016074160113930702 0.05993512272834778 0.01523314043879509 -111.05841064453125 63.0814208984375 56.01691436767578 27.926307678222656 -40.20949935913086 -84.56556701660156 -0.26725202798843384 1.0553253889083862 -0.050232741981744766 0.05269315838813782 -0.03257029131054878 -0.044004738330841064 0.050171270966529846 0.038701269775629044 -0.014965848065912724 -0.0155074717476964 0.03211185708642006 -0.04389031603932381 -7.776861667633057 5.513937473297119 -0.4078032672405243 0.025778651237487793 -0.00822343397885561 -0.11904622614383698 -2.9572293758392334 1.0003130435943604 -0.13026049733161926 -0.0100631732493639 0.019855352118611336 -0.048195116221904755 -10.34434700012207 0.746184229850769 -0.010398922488093376 0.03584692254662514 0.08667539060115814 0.00075447530252859 -2.1354050636291504 -0.7055855393409729 0.245361328125 -0.0064760977402329445 -0.0503118634223938 -0.030714252963662148 4.088566780090332 -31.383989334106445 -0.1724792867898941 -1.6244696378707886 57.106056213378906 1.945046067237854 -1.5376992225646973 -22.70592498779297 -2.363389253616333 0.08731895685195923 -0.05828040838241577 0.09916780143976212 -8.77308177947998 -33.573726654052734 -4.648906230926514 1.1216930150985718 55.738216400146484 -1.9780880212783813 5.179153919219971 -21.291240692138672 10.179585456848145
17.879566363990307 75.52586197853088 0.7989466190338135 -0.7274256944656372 0.95897376537323 2.838146686553955 -4.5930328369140625 3.534806251525879 13.128440856933594 0.12525781989097595 -6.725818634033203 3.6606693267822266 -7.257996082305908 12.415860176086426 -8.258574485778809 8.56152629852295 -14.87860107421875 -14.47568416595459 -0.10202397406101227 -0.03012337163090706 -0.005740885157138109 0.016202833503484726 -0.056095242500305176 -0.013541162945330143 0.07172775268554688 0.05525945499539375 0.1006404310464859 -47.10309982299805 52.27864456176758 122.57581329345703 -28.32465362548828 -31.411968231201172 69.63115692138672 -0.1308344006538391 -1.7249516248703003 -0.10314749926328659 0.019595153629779816 -0.007672319188714027 -0.07102175056934357 -0.01555588562041521 -0.024416929110884666 0.058361321687698364 0.06556999683380127 -0.034000713378190994 0.02710377424955368 7.672935485839844 5.454588413238525 0.47932103276252747 0.187897726893425 0.002840859116986394 -0.016685832291841507 2.8316922187805176 1.0052369832992554 -0.04490737244486809 -0.037401437759399414 0.03393452614545822 0.11440861225128174 10.321083068847656 0.7849042415618896 -0.003360298927873373 -0.06228740140795708 0.09043493866920471 0.0018333479529246688 2.2494049072265625 -0.7104058265686035 -0.17335215210914612 0.0020194300450384617 0.07112593948841095 0.02480248175561428 -112.6156005859375 63.30619430541992 56.79737854003906 27.985774993896484 -39.920658111572266 -83.99903869628906 -0.22671924531459808 0.8818641901016235 -0.010363414883613586 0.049287449568510056 -0.04467698186635971 -0.017222102731466293 0.05313314497470856 0.023710550740361214 -0.009554675780236721 -0.019344830885529518 -0.02109045349061489 -0.0359467938542366 -7.778210163116455 5.5305023193359375 -0.4263894855976105 0.0007918619667179883 0.007196170277893543 -0.07492602616548538 -2.9622223377227783 1.0477423667907715 -0.10530025511980057 -0.01028671208769083 0.023972032591700554 -0.04177747666835785 -10.313706398010254 0.7658684253692627 -0.018181364983320236 0.027993150055408478 0.10068690031766891 -0.02126312255859375 -2.104098081588745 -0.7104982733726501 0.21534578502178192 -0.01016595121473074 -0.017934154719114304 -0.005501301493495703 4.218858242034912 -31.721471786499023 0.12686778604984283 -1.4027397632598877 57.96952819824219 1.7218480110168457 -1.5743943452835083 -22.988998413085938 -2.5533506870269775 0.09612657874822617 -0.00405093003064394 0.09387538582086563 -8.847497940063477 -33.4488525390625 -4.626860618591309 1.148696780204773 56.09608840942383 -1.9076176881790161 5.277566909790039 -21.528045654296875 10.122954368591309
